<svg xmlns="http://www.w3.org/2000/svg" xmlns:xlink="http://www.w3.org/1999/xlink" width="520" height="520" viewBox="0 0 520 520">
  <defs>
    <clipPath id="clip-user2">
      <rect width="520" height="520"/>
    </clipPath>
  </defs>
  <g id="user2" clip-path="url(#clip-user2)">
    <path id="user" d="M387.221,431.7A69.311,69.311,0,0,0,348.9,369.7l-82.542-41.271a31.491,31.491,0,0,1-17.4-28.162V267.883a123.421,123.421,0,0,0,7.812-10.041,189.8,189.8,0,0,0,25.656-51.71,25.91,25.91,0,0,0,18.38-24.662V146.9a25.777,25.777,0,0,0-8.641-19.158V77.772S302.423,0,197.11,0s-95.055,77.772-95.055,77.772v49.973A25.777,25.777,0,0,0,93.414,146.9v34.566a25.919,25.919,0,0,0,11.951,21.75c8.633,37.607,31.256,64.663,31.256,64.663v31.584a31.468,31.468,0,0,1-16.41,27.635L43.121,369.16A69.3,69.3,0,0,0,7,430v27.989C7,481.852,92.118,501.2,197.11,501.2s190.11-19.348,190.11-43.207V431.7Z" transform="translate(63 9.2)" fill="#d01257"/>
  </g>
</svg>
